OpenSim_Sub01_CSStiffKnee_GRF.mot
version=1
nRows=57
nColumns=19
inDegrees=no
endheader
time	lFx	lFy	lFz	lCOPx	lCOPy	lCOPz	rFx	rFy	rFz	rCOPx	rCOPy	rCOPz	lMx	lMy	lMz	rMx	rMy	rMz
0	3.49465056	339.60602026	24.22296230	0.70129228	0	-0.67924125	-5.57595733	312.58435826	-26.04701020	0.74579489	0	-0.35448404	0	-3.57097278	0	0	2.20520701	0
0.01000000	2.95831098	338.96988557	24.19295388	0.70147372	0	-0.67917493	-4.74254464	312.61906538	-26.11310562	0.74455852	0	-0.35482440	0	-3.45373907	0	0	2.13461326	-0.00000000
0.02000000	2.72784086	338.60848739	24.19145040	0.70160550	0	-0.67907532	-4.26946313	312.75006065	-26.14969359	0.74384739	0	-0.35495621	0	-3.37131514	0	0	2.08772721	-0.00000000
0.03000000	2.71061116	338.53891008	24.20435674	0.70165508	0	-0.67897938	-4.08056226	312.88365175	-26.18575793	0.74363357	0	-0.35492603	0	-3.32486429	0	0	2.04590869	0.00000000
0.04000000	2.76806007	338.64205426	24.20736429	0.70162984	0	-0.67891337	-4.04202643	312.91933383	-26.24794851	0.74363768	0	-0.35479997	0	-3.30497198	0	0	2.01271232	0.00000000
0.05000000	2.83180234	338.79564025	24.20021639	0.70152583	0	-0.67889127	-4.05309870	312.81671629	-26.30396452	0.74363691	0	-0.35465288	0	-3.30159571	0	0	2.01577688	-0.00000000
0.06000000	2.87854833	338.94204577	24.20312703	0.70132058	0	-0.67886567	-4.05777418	312.64997246	-26.33459665	0.74353803	0	-0.35457983	0	-3.30585643	0	0	2.04417843	0.00000000
0.07000000	2.90973612	339.16643781	24.23606106	0.70113878	0	-0.67883241	-4.03348031	312.51856655	-26.34486039	0.74340054	0	-0.35460740	0	-3.30687357	0	0	2.06199232	-0.00000000
0.08000000	2.95695931	339.43102022	24.29949392	0.70107076	0	-0.67878718	-3.98735171	312.45837824	-26.33613688	0.74330007	0	-0.35463829	0	-3.30426259	0	0	2.04571654	0
0.09000000	3.02130781	339.57546482	24.37662418	0.70108164	0	-0.67876543	-3.94106458	312.41931171	-26.30693850	0.74317865	0	-0.35461721	0	-3.30546511	0	0	2.01359154	0.00000000
0.10000000	3.08250804	339.49661220	24.44841798	0.70114849	0	-0.67876042	-3.88712746	312.35719574	-26.27348247	0.74300230	0	-0.35455873	0	-3.29625077	0	0	1.98888795	0.00000000
0.11000000	3.13951467	339.31142382	24.52192831	0.70121306	0	-0.67876060	-3.83641488	312.33656838	-26.25160786	0.74296566	0	-0.35449066	0	-3.27476954	0	0	1.96718383	0.00000000
0.12000000	3.18176998	339.20464922	24.63226819	0.70125379	0	-0.67873617	-3.86720081	312.40124528	-26.21595308	0.74320038	0	-0.35442377	0	-3.23704862	0	0	1.95459637	-0.00000000
0.13000000	3.17067374	339.20274718	24.76118884	0.70123257	0	-0.67871323	-4.10319049	312.50989300	-26.16410089	0.74363953	0	-0.35436130	0	-3.17607631	0	0	1.96371832	0.00000000
0.14000000	3.02167958	339.24711148	24.85431551	0.70126532	0	-0.67869983	-4.64991449	312.62581936	-26.08737769	0.74434604	0	-0.35428413	0	-3.09929390	0	0	1.97175322	0
0.15000000	2.62158834	339.25851626	24.86712133	0.70166421	0	-0.67867754	-5.43087838	312.59802513	-25.98974290	0.74514104	0	-0.35420663	0	-3.02003732	0	0	1.95557071	0
0.16000000	1.90514712	339.01389338	24.74614816	0.70253676	0	-0.67865785	-6.02852810	312.15672934	-25.89813093	0.74545825	0	-0.35416219	0	-2.95765205	0	0	1.91872504	0.00000000
0.17000000	1.14688363	338.35748164	24.49608029	0.70346154	0	-0.67867746	-6.17249035	311.30771341	-25.89187561	0.74502313	0	-0.35416817	0	-2.96419673	0	0	1.89475777	-0.00000000
0.18000000	0.79940163	337.34557610	24.26777988	0.70358508	0	-0.67873473	-5.97248549	310.46466326	-25.95984445	0.74431752	0	-0.35420248	0	-3.11132073	0	0	1.88100264	0
0.19000000	1.02020963	336.48922892	24.10594219	0.70306715	0	-0.67883456	-5.69140084	310.06028696	-26.00387705	0.74385483	0	-0.35420938	0	-3.34515053	0	0	1.88311563	0.00000000
0.20000000	1.49312042	336.31062549	23.99935026	0.70248786	0	-0.67893999	-5.48553781	310.17809682	-25.99114884	0.74367756	0	-0.35419359	0	-3.59189738	0	0	1.89232416	-0.00000000
0.21000000	1.90939187	336.82075223	23.89068691	0.70214281	0	-0.67899979	-5.34870826	310.66367361	-25.96521712	0.74365746	0	-0.35416776	0	-3.78689669	0	0	1.89752749	-0.00000000
0.22000000	2.14755657	337.70726906	23.75079446	0.70195261	0	-0.67900521	-5.22823832	311.33181287	-25.94429621	0.74364588	0	-0.35412164	0	-3.89915783	0	0	1.89837398	0
0.23000000	2.23395623	338.56989767	23.61287231	0.70179668	0	-0.67898210	-5.09908941	311.99801860	-25.94965231	0.74355227	0	-0.35407409	0	-3.97752575	0	0	1.90643700	0.00000000
0.24000000	2.27934508	339.15546735	23.47510163	0.70154347	0	-0.67898077	-4.95765082	312.58742920	-25.99551888	0.74334012	0	-0.35402246	0	-4.05922645	0	0	1.92130899	-0.00000000
0.25000000	2.34498034	339.54916232	23.37102207	0.70121589	0	-0.67901986	-4.79307449	313.20200283	-26.09809087	0.74294687	0	-0.35395428	0	-4.15818556	0	0	1.92510495	-0.00000000
0.26000000	2.46471953	339.98150314	23.33753130	0.70083567	0	-0.67906202	-4.60058975	313.93016025	-26.27718427	0.74225597	0	-0.35390197	0	-4.27129282	0	0	1.92280321	0.00000000
0.27000000	2.62861067	340.63724530	23.35983279	0.70052672	0	-0.67909117	-4.41577649	314.89524718	-26.49039895	0.74148108	0	-0.35389290	0	-4.37835092	0	0	1.91245357	-0.00000000
0.28000000	2.75589997	341.57270986	23.42040186	0.70058459	0	-0.67909185	-4.36168072	316.10006110	-26.66304623	0.74104346	0	-0.35392794	0	-4.47410865	0	0	1.89524623	-0.00000000
0.29000000	2.70455849	342.59260842	23.47905024	0.70129732	0	-0.67902436	-4.56412653	317.36184287	-26.74760679	0.74105377	0	-0.35396571	0	-4.57564914	0	0	1.88777901	-0.00000000
0.30000000	2.35227246	343.28923162	23.44440150	0.70264358	0	-0.67882251	-5.05271859	318.35487845	-26.75836684	0.74137693	0	-0.35398367	0	-4.67754750	0	0	1.89603500	-0.00000000
0.31000000	1.79345136	343.43764308	23.25785640	0.70426375	0	-0.67846933	-5.70821118	318.76001777	-26.71649220	0.74188857	0	-0.35396266	0	-4.76339419	0	0	1.90625122	0.00000000
0.32000000	1.23957310	343.08450025	22.96398183	0.70584814	0	-0.67806226	-6.36962729	318.43018793	-26.63776921	0.74263496	0	-0.35390252	0	-4.83027370	0	0	1.91564315	0
0.33000000	0.86662853	342.43423409	22.66775741	0.70719423	0	-0.67770241	-6.91607252	317.46118147	-26.53385820	0.74348700	0	-0.35379378	0	-4.88096878	0	0	1.92112370	0
0.34000000	0.67246787	341.70017288	22.46132547	0.70826608	0	-0.67745759	-7.23538755	316.13740805	-26.43239441	0.74424222	0	-0.35363878	0	-4.93119777	0	0	1.91581994	-0.00000000
0.35000000	0.51098301	340.88538727	22.37953072	0.70913501	0	-0.67728521	-7.28714943	314.78587072	-26.39877048	0.74483277	0	-0.35344430	0	-4.99212504	0	0	1.89949530	0
0.36000000	0.25060337	339.89089150	22.40318034	0.70992072	0	-0.67716482	-7.10490206	313.80934797	-26.47563039	0.74522043	0	-0.35322515	0	-5.07108614	0	0	1.86616085	-0.00000000
0.37000000	-0.16691050	338.61189326	22.43669058	0.71080250	0	-0.67706445	-6.69459331	313.78037670	-26.69540368	0.74524440	0	-0.35299354	0	-5.14520368	0	0	1.84119801	0.00000000
0.38000000	-0.72122872	336.91751600	22.38014986	0.71195424	0	-0.67695519	-5.95682892	315.32497269	-27.04346274	0.74492259	0	-0.35276596	0	-5.19447751	0	0	1.84450383	-0.00000000
0.39000000	-1.36923230	334.60657452	22.20615823	0.71326294	0	-0.67684526	-4.66399448	319.03116766	-27.53716048	0.74451609	0	-0.35258051	0	-5.21567550	0	0	1.86719682	0.00000000
0.40000000	-2.04490929	331.35776961	21.93102428	0.71446114	0	-0.67674339	-2.71344757	325.19662746	-28.25282444	0.74431970	0	-0.35238899	0	-5.23098535	0	0	1.86886673	0
0.41000000	-2.67407777	326.78003025	21.59665511	0.71529673	0	-0.67663607	-0.49486994	333.29677468	-29.31254902	0.74440389	0	-0.35211545	0	-5.26353067	0	0	1.82301470	-0.00000000
0.42000000	-3.17176988	320.44153541	21.18579488	0.71575653	0	-0.67654693	1.16253497	342.57648421	-30.78123362	0.74480339	0	-0.35168625	0	-5.30890858	0	0	1.75044271	0.00000000
0.43000000	-3.51291059	311.97000472	20.63090529	0.71606129	0	-0.67641283	1.57033374	352.62354760	-32.62734186	0.74544747	0	-0.35109026	0	-5.35347288	0	0	1.68527829	-0.00000000
0.44000000	-3.71634159	301.19641086	19.80710458	0.71659677	0	-0.67617380	0.58235904	363.33104214	-34.83414597	0.74632318	0	-0.35040840	0	-5.36028182	0	0	1.62809884	-0.00000000
0.45000000	-3.80951975	288.33100228	18.58477141	0.71784538	0	-0.67595279	-1.46130440	374.56147825	-37.44142055	0.74736025	0	-0.34982813	0	-5.32217211	0	0	1.53565492	-0.00000000
0.46000000	-3.86787399	274.16017978	17.01673868	0.71964054	0	-0.67588480	-3.95341764	385.91994112	-40.34553770	0.74868800	0	-0.34952149	0	-5.23042548	0	0	1.34066796	0
0.47000000	-3.94672600	259.93035402	15.37353791	0.72103293	0	-0.67588930	-6.28844041	396.83384972	-43.25940499	0.75031559	0	-0.34949199	0	-5.06739830	0	0	1.02619211	-0.00000000
0.48000000	-3.97313751	246.71052625	13.88110744	0.72130186	0	-0.67574875	-8.16721563	406.74960490	-45.89846766	0.75189150	0	-0.34964082	0	-4.85443215	0	0	0.67728464	0.00000000
0.49000000	-3.94628376	235.41556236	12.65674438	0.72054835	0	-0.67536383	-9.63750380	415.35890753	-48.11137034	0.75283120	0	-0.34987764	0	-4.62209563	0	0	0.42909152	0.00000000
0.50000000	-4.00349522	226.93547438	11.74357915	0.71932435	0	-0.67481333	-10.84160667	422.53610107	-49.87428890	0.75295463	0	-0.35012027	0	-4.39981421	0	0	0.31770303	-0.00000000
0.51000000	-4.37608809	221.84852504	11.10313337	0.71814378	0	-0.67417234	-11.78316318	428.18308016	-51.26959695	0.75251287	0	-0.35033860	0	-4.20736475	0	0	0.28499520	-0.00000000
0.52000000	-5.26389714	219.92811013	10.66306575	0.71739547	0	-0.67346147	-12.32476269	432.20252618	-52.36817519	0.75190515	0	-0.35050800	0	-4.05840034	0	0	0.26658993	0.00000000
0.53000000	-6.52034702	219.96040985	10.30779850	0.71709999	0	-0.67265368	-12.47302986	434.63408634	-53.17441726	0.75157896	0	-0.35059821	0	-3.91850034	0	0	0.22537223	-0.00000000
0.54000000	-7.73005030	220.73335860	9.93990716	0.71700667	0	-0.67180485	-12.40162327	435.53500909	-53.65491621	0.75161851	0	-0.35063877	0	-3.75696036	0	0	0.16008901	0
0.55000000	-8.54451822	221.71339218	9.52429045	0.71672495	0	-0.67097356	-12.24284920	434.96272011	-53.77062452	0.75189486	0	-0.35071388	0	-3.56544424	0	0	0.08570248	0.00000000
0.56000000	-8.84298709	222.88380302	9.06152690	0.71611323	0	-0.67028553	-12.00326870	433.00853011	-53.52993375	0.75206942	0	-0.35084387	0	-3.36279279	0	0	0.01043511	0.00000000
